<svg xmlns="http://www.w3.org/2000/svg" xmlns:xlink="http://www.w3.org/1999/xlink" version="1.1" class="u-svg-content" viewBox="-55 -21 681 681.33241" style="width: 1em; height: 1em;"><path fill="#FFFFFF" d="m300.566406 168.964844c-.898437 0-1.476562-.015625-1.691406-.019532l-15.714844-.410156-2.375-15.542968c-.433594-2.824219-10.117187-69.566407 27.242188-111.9375h.003906c37.359375-42.371094 104.789062-41.1132818 107.644531-41.0351568l15.722657.4101568 2.375 15.542968c.425781 2.824219 10.117187 69.566406-27.246094 111.933594-34.5625 39.191406-94.851563 41.058594-105.960938 41.058594zm0 0"></path><path fill="#FFFFFF" d="m377.699219 638.75c-13.628907 0-27.5625-1.75-41.695313-5.269531-18.421875-4.589844-35.796875-12.054688-51.820312-22.25-16.03125 10.195312-33.40625 17.660156-51.828125 22.25-13.621094 3.390625-27.042969 5.078125-40.15625 5.078125-37.339844 0-72.230469-13.65625-102.523438-40.441406-36.730469-32.480469-64.46875-82.332032-80.214843-144.152344-9.585938-37.632813-13.269532-73.878906-10.949219-107.722656 2.453125-35.816407 11.527343-67.078126 26.980469-92.929688 20.761718-34.75 52.867187-58.382812 92.835937-68.339844 30.9375-7.703125 63.894531-6.792968 95.3125 2.636719 24.933594 7.480469 49.039063 20.34375 70.542969 37.542969 21.5-17.199219 45.605468-30.066406 70.539062-37.542969 31.421875-9.429687 64.375-10.339844 95.3125-2.636719 22.660156 5.644532 42.90625 15.742188 60.179688 30.011719l17.597656 14.535156-17.640625 14.484375c-24.621094 20.21875-38.75 50.0625-38.75 81.878906 0 48.335938 32.648437 90.503907 79.382813 102.546876l17.820312 4.589843-4.210938 17.914063c-.535156 2.265625-1.082031 4.535156-1.660156 6.808594-15.613281 61.3125-44.164062 110.632812-82.5625 142.625-30.519531 25.425781-65.386718 38.382812-102.492187 38.382812zm0 0"></path></svg>