<svg xmlns="http://www.w3.org/2000/svg" xmlns:xlink="http://www.w3.org/1999/xlink" version="1.1" class="u-svg-content" viewBox="0 0 512 512" x="0px" y="0px" id="svg-b25b" style="enable-background:new 0 0 512 512;"><g><g><path fill="#54C788" d="M356.324,0v76.108c0,19.075,15.519,34.594,34.594,34.594h76.108L356.324,0z"></path>
</g>
</g><g><g><path fill="#54C788" d="M390.918,145.298c-38.054,0-69.189-31.135-69.189-69.189V0H44.973v442.811c0,38.054,31.135,69.189,69.189,69.189h283.675    c38.054,0,69.189-31.135,69.189-69.189V145.298H390.918z M203.125,375.884l-25.718,23.143l-72.684-80.758l72.69-80.758    l25.718,23.137l-51.864,57.621L203.125,375.884z M248.265,399.623l-32.969-10.489l48.432-152.217l32.969,10.489L248.265,399.623z     M334.584,399.028l-25.718-23.143l51.857-57.613l-51.85-57.613l25.718-23.151l72.683,80.758L334.584,399.028z"></path>
</g>
</g></svg>