<svg xmlns="http://www.w3.org/2000/svg" xmlns:xlink="http://www.w3.org/1999/xlink" version="1.1" class="u-svg-content" viewBox="0 0 506.292 506.292" id="svg-cc18"><path fill="#FF8A8A" d="m341.859 476.292h-42.653l-6.13-81.05h-79.86l-6.13 81.05h-42.653c-8.284 0-15 6.716-15 15s6.716 15 15 15h177.426c8.284 0 15-6.716 15-15s-6.716-15-15-15z"></path><path fill="#FF8A8A" d="m447.326 111.442h-36.2l-107.96 107.59c2.639 23.459-5.249 47.262-22.52 64.53-24.368 24.367-100.672 36.339-134.98 40.19-10.05.927-17.521-7.397-16.53-16.54 3.821-33.754 15.692-110.482 40.19-134.98 17.6-17.6 41.54-25.11 64.54-22.52l38.13-38.27h-213.03c-8.45 0-15.32 6.87-15.32 15.32v223.16c0 8.45 6.87 15.32 15.32 15.32h388.36c8.45 0 15.32-6.87 15.32-15.32v-223.16c0-8.45-6.87-15.32-15.32-15.32z"></path><path fill="#FF8A8A" d="m292.456 187.352c3.997-3.983 112.841-112.458 155.15-154.62 7.17-7.58 7.02-19.7-.37-27.08-7.39-7.39-19.51-7.55-27.09-.38-.509.511-152.369 152.901-154.61 155.15 10.622 6.365 20.106 15.559 26.92 26.93z"></path><path fill="#FF8A8A" d="m259.436 193.452c-19.058-19.059-49.979-18.94-68.9 0-12.4 12.4-23.43 59.66-29.11 98.01 21.977-3.258 83.784-14.034 99.08-30.21 17.97-19.158 17.48-49.251-1.07-67.8z"></path></svg>