<svg version="1.1" id="Layer_1" xmlns="http://www.w3.org/2000/svg" xmlns:xlink="http://www.w3.org/1999/xlink" x="0px" y="0px"
	 width="100%" viewBox="0 0 150 113" enable-background="new 0 0 150 113" xml:space="preserve">
<path fill="#0185FF" opacity="1.000000" stroke="none" 
	d="
M84.000000,114.000000 
	C56.000000,114.000000 28.500000,114.000000 1.000000,114.000000 
	C1.000000,76.333336 1.000000,38.666668 1.000000,1.000000 
	C51.000000,1.000000 101.000000,1.000000 151.000000,1.000000 
	C151.000000,38.666668 151.000000,76.333336 151.000000,114.000000 
	C128.833328,114.000000 106.666664,114.000000 84.000000,114.000000 
M77.253204,82.189270 
	C78.518906,83.044540 79.763023,84.601761 81.053795,84.641434 
	C89.573395,84.903305 96.542290,78.104042 96.841484,69.335663 
	C97.028664,63.850174 96.886063,58.353397 96.889435,52.861683 
	C96.891510,49.479828 96.889816,46.097977 96.889816,41.613705 
	C94.380119,43.479870 92.997429,44.508007 91.564064,45.573830 
	C85.570473,40.783337 79.305305,39.419006 72.664314,43.888672 
	C66.955376,47.731030 64.226082,54.929173 66.238792,62.000271 
	C69.285583,72.704323 77.515488,74.605156 87.519745,73.022179 
	C87.539459,73.628662 87.559166,74.235138 87.578880,74.841621 
	C84.319466,75.785530 81.060051,76.729446 77.483406,77.765228 
	C77.418205,78.736732 77.330925,80.037262 77.253204,82.189270 
M112.643036,73.049469 
	C113.958870,73.234322 115.273254,73.566452 116.590775,73.579330 
	C123.404121,73.645889 129.309052,69.121613 131.403320,62.325653 
	C133.565552,55.309135 130.991608,47.553814 125.239235,43.753246 
	C119.470551,39.941891 111.968735,40.336685 106.675476,44.858685 
	C97.161049,52.986786 100.016579,69.068253 112.643036,73.049469 
M62.279854,62.410461 
	C65.125305,49.511589 56.513348,39.187119 44.791866,41.444939 
	C37.267262,42.894344 32.087860,49.180756 31.932440,57.052845 
	C31.780897,64.728630 36.558746,71.253059 43.656860,73.063217 
	C51.469376,75.055565 57.927929,71.588013 62.279854,62.410461 
M19.861008,59.490959 
	C19.861008,63.915588 19.861008,68.340218 19.861008,72.649323 
	C22.856197,72.649323 25.094179,72.649323 27.439693,72.649323 
	C27.439693,58.402412 27.439693,44.515034 27.439693,30.415188 
	C24.867889,30.415188 22.628445,30.415188 19.861004,30.415188 
	C19.861004,39.946762 19.861004,49.220669 19.861008,59.490959 
z"/>
<path fill="#F4FAFF" opacity="1.000000" stroke="none" 
	d="
M77.248421,81.763535 
	C77.330925,80.037262 77.418205,78.736732 77.483406,77.765228 
	C81.060051,76.729446 84.319466,75.785530 87.578880,74.841621 
	C87.559166,74.235138 87.539459,73.628662 87.519745,73.022179 
	C77.515488,74.605156 69.285583,72.704323 66.238792,62.000271 
	C64.226082,54.929173 66.955376,47.731030 72.664314,43.888672 
	C79.305305,39.419006 85.570473,40.783337 91.564064,45.573830 
	C92.997429,44.508007 94.380119,43.479870 96.889816,41.613705 
	C96.889816,46.097977 96.891510,49.479828 96.889435,52.861683 
	C96.886063,58.353397 97.028664,63.850174 96.841484,69.335663 
	C96.542290,78.104042 89.573395,84.903305 81.053795,84.641434 
	C79.763023,84.601761 78.518906,83.044540 77.248421,81.763535 
M73.907051,55.008553 
	C73.370369,62.838627 77.779587,67.520958 83.581619,65.205170 
	C87.225143,63.750912 89.077614,60.849991 88.882172,57.006145 
	C88.687073,53.168873 86.593979,50.297119 82.795753,49.391724 
	C78.662552,48.406471 75.719238,50.286339 73.907051,55.008553 
z"/>
<path fill="#F5FAFF" opacity="1.000000" stroke="none" 
	d="
M112.268639,72.947632 
	C100.016579,69.068253 97.161049,52.986786 106.675476,44.858685 
	C111.968735,40.336685 119.470551,39.941891 125.239235,43.753246 
	C130.991608,47.553814 133.565552,55.309135 131.403320,62.325653 
	C129.309052,69.121613 123.404121,73.645889 116.590775,73.579330 
	C115.273254,73.566452 113.958870,73.234322 112.268639,72.947632 
M109.760262,53.609905 
	C109.500862,54.725002 109.054451,55.833382 109.014114,56.956348 
	C108.829842,62.086124 112.396255,65.949593 116.984932,65.721977 
	C121.386795,65.503632 125.032021,61.508423 124.002647,56.787605 
	C123.425941,54.142735 121.268394,51.095753 118.943665,49.756111 
	C115.563751,47.808411 112.261841,49.584999 109.760262,53.609905 
z"/>
<path fill="#F5FAFF" opacity="1.000000" stroke="none" 
	d="
M62.167797,62.797722 
	C57.927929,71.588013 51.469376,75.055565 43.656860,73.063217 
	C36.558746,71.253059 31.780897,64.728630 31.932440,57.052845 
	C32.087860,49.180756 37.267262,42.894344 44.791866,41.444939 
	C56.513348,39.187119 65.125305,49.511589 62.167797,62.797722 
M47.503235,65.748665 
	C48.467381,65.530968 49.503590,65.471008 50.383553,65.069031 
	C54.869377,63.019829 56.499306,57.845425 54.168476,53.292301 
	C52.214745,49.475811 47.806568,48.024345 44.045483,49.959137 
	C40.067886,52.005306 38.326771,57.574642 40.996346,61.517120 
	C42.245171,63.361416 44.790539,64.327789 47.503235,65.748665 
z"/>
<path fill="#F0F8FF" opacity="1.000000" stroke="none" 
	d="
M19.861006,58.992767 
	C19.861004,49.220669 19.861004,39.946762 19.861004,30.415188 
	C22.628445,30.415188 24.867889,30.415188 27.439693,30.415188 
	C27.439693,44.515034 27.439693,58.402412 27.439693,72.649323 
	C25.094179,72.649323 22.856197,72.649323 19.861008,72.649323 
	C19.861008,68.340218 19.861008,63.915588 19.861006,58.992767 
z"/>
<path fill="#0988FF" opacity="1.000000" stroke="none" 
	d="
M74.001328,54.605553 
	C75.719238,50.286339 78.662552,48.406471 82.795753,49.391724 
	C86.593979,50.297119 88.687073,53.168873 88.882172,57.006145 
	C89.077614,60.849991 87.225143,63.750912 83.581619,65.205170 
	C77.779587,67.520958 73.370369,62.838627 74.001328,54.605553 
z"/>
<path fill="#0A89FF" opacity="1.000000" stroke="none" 
	d="
M109.922226,53.249298 
	C112.261841,49.584999 115.563751,47.808411 118.943665,49.756111 
	C121.268394,51.095753 123.425941,54.142735 124.002647,56.787605 
	C125.032021,61.508423 121.386795,65.503632 116.984932,65.721977 
	C112.396255,65.949593 108.829842,62.086124 109.014114,56.956348 
	C109.054451,55.833382 109.500862,54.725002 109.922226,53.249298 
z"/>
<path fill="#0A89FF" opacity="1.000000" stroke="none" 
	d="
M47.125755,65.720367 
	C44.790539,64.327789 42.245171,63.361416 40.996346,61.517120 
	C38.326771,57.574642 40.067886,52.005306 44.045483,49.959137 
	C47.806568,48.024345 52.214745,49.475811 54.168476,53.292301 
	C56.499306,57.845425 54.869377,63.019829 50.383553,65.069031 
	C49.503590,65.471008 48.467381,65.530968 47.125755,65.720367 
z"/>
</svg>